Coordinates
version=1
nRows=32
nColumns=22
inDegrees=yes

Units are S.I. units (second, meters, Newtons, ...)
If the header above contains a line with 'inDegrees', this indicates whether rotational values are in degrees (yes) or radians (no).

endheader
time	pelvis_tilt	pelvis_list	pelvis_rotation	pelvis_tx	pelvis_ty	pelvis_tz	hip_flexion_r	hip_adduction_r	hip_rotation_r	knee_angle_r	ankle_angle_r	subtalar_angle_r	hip_flexion_l	hip_adduction_l	hip_rotation_l	knee_angle_l	ankle_angle_l	subtalar_angle_l	lumbar_extension	lumbar_bending	lumbar_rotation
      4.15000000	     -1.81303086	      4.14189253	    -99.32326125	      0.32665667	      0.87549111	      0.26172948	      9.61101112	     -0.98158873	     12.11773836	    -50.25178227	      4.74256919	     10.91729833	     23.13417735	     -6.38035822	     -6.08819984	    -22.14084047	      5.16468197	      5.00136727	     -1.34131750	      1.52692298	     14.72600439
      4.16000000	     -1.75124522	      3.99727346	    -99.33804735	      0.32879952	      0.87629324	      0.26675207	     10.68776132	     -1.21834527	     11.69860346	    -51.79034430	      4.89917057	     10.78685121	     22.59241836	     -6.09804169	     -6.22123294	    -22.06786606	      5.50796182	      4.93032733	     -1.59419568	      1.36820748	     14.45942504
      4.17000000	     -1.66244194	      3.86738471	    -99.31245925	      0.33091995	      0.87711251	      0.27172307	     11.72279779	     -1.51309401	     11.18602643	    -53.05341703	      5.23572878	     10.15076816	     22.04069461	     -5.76950516	     -6.30363450	    -21.91468526	      5.80573895	      4.78691032	     -1.80389300	      1.18217073	     14.15292306
      4.18000000	     -1.57631593	      3.72678230	    -99.21843381	      0.33305625	      0.87799086	      0.27663523	     12.65387452	     -1.83213614	     10.59618435	    -54.00483076	      5.75802285	      9.29907616	     21.47361515	     -5.41623888	     -6.31377980	    -21.72131539	      6.06607100	      4.68987460	     -2.00950063	      1.00117217	     13.74684415
      4.19000000	     -1.50691697	      3.60290527	    -99.07231948	      0.33519477	      0.87892431	      0.28151521	     13.50403132	     -2.15948633	      9.92549819	    -54.63345766	      6.35917664	      8.33712797	     20.89708564	     -5.06183139	     -6.25549681	    -21.45663563	      6.27091981	      4.59622721	     -2.17596111	      0.84798097	     13.29096927
      4.20000000	     -1.47358938	      3.49515425	    -98.88227902	      0.33729913	      0.87992387	      0.28632392	     14.26225316	     -2.46448813	      9.18300664	    -54.92488668	      6.99224323	      7.31729864	     20.31603974	     -4.73835091	     -6.15525177	    -21.13582851	      6.43848668	      4.50042953	     -2.31639954	      0.74012188	     12.79090307
      4.21000000	     -1.47419270	      3.40668204	    -98.65877243	      0.33937638	      0.88097368	      0.29105673	     14.93228080	     -2.73376904	      8.40472891	    -54.89314660	      7.62542873	      6.32609222	     19.73211075	     -4.44847719	     -6.02677309	    -20.76062466	      6.57381185	      4.41198165	     -2.42547623	      0.68292013	     12.24360737
      4.22000000	     -1.50680376	      3.34091734	    -98.41554064	      0.34140025	      0.88205614	      0.29568326	     15.52227601	     -2.96210687	      7.59556907	    -54.54777907	      8.24531981	      5.41718890	     19.14283949	     -4.19580578	     -5.86040551	    -20.31926365	      6.67820311	      4.33687796	     -2.50405833	      0.66951017	     11.69464972
      4.23000000	     -1.56774952	      3.30022941	    -98.16352809	      0.34334906	      0.88314354	      0.30016767	     16.03852197	     -3.13663083	      6.78126144	    -53.90246901	      8.84933956	      4.58781489	     18.56568118	     -3.98778479	     -5.69823916	    -19.83855657	      6.75444814	      4.27709156	     -2.55485715	      0.69619795	     11.12845164
      4.24000000	     -1.64548754	      3.28980663	    -97.90909185	      0.34520928	      0.88420388	      0.30449178	     16.49056513	     -3.26009873	      5.97350364	    -52.96977886	      9.44160176	      3.85910856	     18.01165952	     -3.81543572	     -5.53713813	    -19.32608152	      6.80667530	      4.23677636	     -2.57315986	      0.74627458	     10.56727660
      4.25000000	     -1.73663826	      3.30933564	    -97.66829677	      0.34695779	      0.88520312	      0.30862446	     16.89521576	     -3.32686766	      5.18436033	    -51.78369081	     10.03519336	      3.17803643	     17.49017780	     -3.68145620	     -5.40720609	    -18.79920148	      6.83911947	      4.21182269	     -2.56561644	      0.81478465	     10.04288421
      4.26000000	     -1.83069962	      3.36352942	    -97.44267513	      0.34857199	      0.88612645	      0.31256980	     17.25189572	     -3.33180127	      4.44938821	    -50.34540178	     10.61304908	      2.56879314	     17.01159515	     -3.57533147	     -5.29667290	    -18.26546976	      6.85716823	      4.20502872	     -2.52672991	      0.88756300	      9.53714826
      4.27000000	     -1.93156538	      3.44937610	    -97.23353794	      0.35002014	      0.88695936	      0.31633354	     17.56308152	     -3.26467376	      3.77857522	    -48.67860344	     11.17123418	      2.03635790	     16.57855040	     -3.50281325	     -5.20711934	    -17.73827606	      6.86680764	      4.21469078	     -2.46166281	      0.96228148	      9.06279730
      4.28000000	     -2.03172129	      3.57843267	    -97.02339668	      0.35133076	      0.88765956	      0.31989974	     17.84764659	     -3.13845996	      3.16987735	    -46.81205197	     11.70963930	      1.75295438	     16.22676590	     -3.45045741	     -5.11411744	    -17.25059141	      6.87481751	      4.23200084	     -2.36038496	      1.03375782	      8.60409848
      4.29000000	     -2.16091066	      3.71190501	    -96.84938058	      0.35237045	      0.88831028	      0.32330512	     18.04898756	     -2.89312972	      2.70074081	    -44.73835246	     12.20677193	      1.41960551	     15.89458147	     -3.46217095	     -5.05479056	    -16.78911668	      6.89408236	      4.26248557	     -2.26942094	      1.11814765	      8.21161102
      4.30000000	     -2.29601751	      3.86615397	    -96.69349364	      0.35320081	      0.88885461	      0.32654765	     18.20044997	     -2.57148432	      2.36654380	    -42.50193081	     12.67202924	      1.18061947	     15.61945490	     -3.50677487	     -5.01066270	    -16.37934737	      6.92530104	      4.30788875	     -2.16813386	      1.19805096	      7.86958754
      4.31000000	     -2.44400307	      4.02500908	    -96.54681756	      0.35381205	      0.88931361	      0.32966200	     18.28199620	     -2.18163810	      2.15816497	    -40.12736096	     13.09264228	      1.05039343	     15.38485029	     -3.58788089	     -4.96623064	    -16.02659823	      6.97751861	      4.36770552	     -2.07259010	      1.27513214	      7.56462015
      4.32000000	     -2.60654391	      4.17249329	    -96.40126751	      0.35421719	      0.88970886	      0.33268601	     18.27757605	     -1.74199047	      2.06214733	    -37.64428244	     13.45624310	      1.01303547	     15.17279096	     -3.70318123	     -4.91679023	    -15.73227068	      7.06101643	      4.44524568	     -1.99673846	      1.35004150	      7.28544464
      4.33000000	     -2.77543081	      4.29971711	    -96.26034246	      0.35444880	      0.89004618	      0.33564756	     18.18946049	     -1.28308368	      2.05845093	    -35.09747796	     13.76070290	      1.04471924	     14.97350521	     -3.83989312	     -4.86042826	    -15.49908068	      7.17434466	      4.53927885	     -1.94639719	      1.41889179	      7.04004730
      4.34000000	     -2.93878741	      4.41050848	    -96.12915796	      0.35453515	      0.89031389	      0.33856914	     18.03982048	     -0.83579066	      2.11631768	    -32.54011493	     13.99770411	      1.10257459	     14.78518125	     -3.98388443	     -4.80809918	    -15.31716847	      7.31598165	      4.63582111	     -1.91143278	      1.47476384	      6.82610118
      4.35000000	     -3.07147448	      4.47900682	    -96.00642164	      0.35453484	      0.89054046	      0.34145387	     17.81793707	     -0.44640289	      2.20274561	    -30.02088697	     14.17855012	      1.13120459	     14.58170658	     -4.10007147	     -4.74974641	    -15.18615605	      7.47867017	      4.76765482	     -1.91950666	      1.49098238	      6.64712436
      4.36000000	     -3.17125320	      4.58441568	    -95.91240110	      0.35448606	      0.89060514	      0.34427097	     17.64207648	     -0.11506431	      2.27971494	    -27.60973710	     14.22709009	      1.11009508	     14.44504302	     -4.19482009	     -4.72232708	    -15.09838227	      7.66556355	      4.82701544	     -1.87569106	      1.48742551	      6.50356177
      4.37000000	     -3.20455602	      4.65712444	    -95.84104432	      0.35451501	      0.89060449	      0.34700989	     17.44480363	      0.10338387	      2.30559316	    -25.33387634	     14.17496463	      0.99383399	     14.30641189	     -4.21052519	     -4.68755948	    -15.05951023	      7.86322043	      4.89268647	     -1.86450825	      1.43049175	      6.41047728
      4.38000000	     -3.15463395	      4.78760507	    -95.81624245	      0.35462940	      0.89040816	      0.34961689	     17.35139192	      0.20796001	      2.28128141	    -23.24427892	     13.95208339	      0.85318850	     14.24993133	     -4.14343186	     -4.68715826	    -15.03665183	      8.04124968	      4.90553451	     -1.77755636	      1.31651867	      6.36527285
      4.39000000	     -3.01591010	      4.92429079	    -95.82632357	      0.35491893	      0.89008909	      0.35206490	     17.30434793	      0.18600502	      2.17674654	    -21.35167840	     13.54807102	      0.64226453	     14.23954699	     -3.97178913	     -4.69484100	    -15.06185900	      8.22765014	      4.88193365	     -1.68207155	      1.13798214	      6.37988364
      4.40000000	     -2.76228650	      5.13013557	    -95.89607956	      0.35536663	      0.88957180	      0.35433092	     17.39461322	      0.02709017	      2.01925435	    -19.69533798	     12.89525740	      0.52364238	     14.31902247	     -3.67819548	     -4.73520768	    -15.08390891	      8.35121588	      4.83927201	     -1.49876698	      0.87811008	      6.47002247
      4.41000000	     -2.45138697	      5.34723209	    -95.99652847	      0.35592177	      0.88895809	      0.35649051	     17.51451755	     -0.20830705	      1.79758688	    -18.23086666	     12.03029574	      0.40518380	     14.42492435	     -3.32221247	     -4.80915174	    -15.11443945	      8.49699956	      4.77008655	     -1.29430202	      0.58456033	      6.59702996
      4.42000000	     -2.10345337	      5.58131056	    -96.12740592	      0.35650830	      0.88827424	      0.35860356	     17.65703694	     -0.48938375	      1.55105441	    -16.95263997	     10.96411946	      0.28342530	     14.54055572	     -2.93103891	     -4.91482093	    -15.12117938	      8.63655887	      4.67127196	     -1.05308431	      0.27621833	      6.76379834
      4.43000000	     -1.73888812	      5.80648439	    -96.27123361	      0.35703885	      0.88757381	      0.36072889	     17.78755006	     -0.79463835	      1.29662613	    -15.87451710	      9.80474615	      0.17436550	     14.62971124	     -2.52828475	     -5.04298813	    -15.09515821	      8.77561778	      4.57671102	     -0.80032572	     -0.04266749	      6.96991123
      4.44000000	     -1.39028345	      6.00901461	    -96.42028032	      0.35741279	      0.88691429	      0.36294320	     17.86867602	     -1.08621331	      1.06478803	    -14.97832077	      8.66426904	      0.05625488	     14.65544677	     -2.15420356	     -5.19538185	    -15.01168605	      8.91685823	      4.49159765	     -0.54728945	     -0.34958824	      7.20271651
      4.45000000	     -1.06944268	      6.17268972	    -96.57379297	      0.35761414	      0.88633421	      0.36528884	     17.87371175	     -1.35396344	      0.87727570	    -14.25531920	      7.68796199	     -0.08902128	     14.58622585	     -1.81767180	     -5.37458919	    -14.85272239	      9.05775760	      4.42391292	     -0.30891248	     -0.63263973	      7.46342686
      4.46000000	     -0.76516485	      6.24818983	    -96.75860016	      0.35761159	      0.88591288	      0.36781023	     17.75120819	     -1.60899580	      0.77021183	    -13.69608967	      6.99313880	     -0.36388157	     14.34060013	     -1.50430627	     -5.62589812	    -14.57454902	      9.21761783	      4.34973519	     -0.13674942	     -0.91127474	      7.76452275
